<?xml version="1.0" encoding="UTF-8" standalone="no"?>
<svg
   xmlns:dc="http://purl.org/dc/elements/1.1/"
   xmlns:cc="http://creativecommons.org/ns#"
   xmlns:rdf="http://www.w3.org/1999/02/22-rdf-syntax-ns#"
   xmlns:svg="http://www.w3.org/2000/svg"
   xmlns="http://www.w3.org/2000/svg"
   viewBox="0 0 533.33331 533.33331"
   height="533.33331"
   width="533.33331"
   id="svg64"
   version="1.1">
  <metadata
     id="metadata70">
    <rdf:RDF>
      <cc:Work
         rdf:about="">
        <dc:format>image/svg+xml</dc:format>
        <dc:type
           rdf:resource="http://purl.org/dc/dcmitype/StillImage" />
        <dc:title></dc:title>
      </cc:Work>
    </rdf:RDF>
  </metadata>
  <defs
     id="defs68" />
  <path
     id="path74"
     d="m 314.24808,425.31122 c -6.16252,-1.84981 -7.80649,-3.90499 -6.81828,-8.52369 0.48493,-2.26648 1.05957,-4.31885 1.27697,-4.5608 0.21742,-0.24196 2.39768,1.74505 4.84506,4.4156 7.60501,8.2985 19.75301,7.84254 25.10922,-0.94244 6.06239,-9.94324 2.08183,-17.67028 -12.57158,-24.40389 -5.18255,-2.38151 -11.12094,-6.13042 -13.1964,-8.33091 -7.30616,-7.74625 -5.97988,-21.29981 2.7347,-27.94676 6.01104,-4.58484 20.15054,-5.91379 26.72855,-2.51216 3.84794,1.98985 4.00336,2.36008 2.57696,6.13901 -1.47343,3.90359 -3.59996,5.45387 -3.59996,2.62447 0,-2.73173 -7.08167,-7.93633 -10.79863,-7.93633 -8.48245,0 -14.5347,6.01812 -14.5347,14.45274 0,5.87323 3.85826,9.57047 16.1848,15.50931 12.57346,6.0578 17.16811,11.22033 17.11925,19.23512 -0.0347,5.68245 -3.80707,14.47328 -7.69415,17.9296 -5.95917,5.29877 -18.47693,7.51812 -27.36181,4.85113 z M 145.33333,388.66665 v -36.66667 h 4.66666 4.66667 v 15.33334 15.33333 h 22 22 v -15.33333 -15.33334 h 4.66666 4.66667 v 36.66667 36.66666 h -4.66667 -4.66666 v -18.66666 -18.66667 h -22 -22 v 18.66667 18.66666 h -4.66667 -4.66666 z m 83.99999,0 v -36.66667 h 19.09134 c 23.1181,0 31.14406,1.92167 38.42178,9.1994 14.41124,14.41124 11.18808,45.3667 -5.93693,57.0188 -8.07951,5.4974 -16.1832,7.11513 -35.64181,7.11513 h -15.93438 z m 39.58067,30.20073 c 10.40349,-5.33446 15.28121,-13.86524 16.12456,-28.20073 0.74178,-12.60891 -1.26654,-20.10215 -7.12603,-26.58791 -5.43376,-6.01452 -12.00742,-8.07876 -25.72724,-8.07876 -14.71658,0 -13.51862,-2.95662 -13.51862,33.36488 0,24.1007 0.40138,31.9302 1.66666,32.51011 3.65712,1.67614 23.52332,-0.4144 28.58067,-3.00759 z m 96.41933,-30.20073 v -36.66667 h 4.66666 4.66667 v 36.66667 36.66666 h -4.66667 -4.66666 z M 145.48009,298.21617 c -9.40675,-5.44066 -8.56315,-19.23822 1.46117,-23.89842 2.41564,-1.12302 7.09207,-2.47907 10.39207,-3.01346 10.18012,-1.64853 12,-2.76457 12,-7.35895 0,-11.91696 -10.2618,-16.9202 -20.4806,-9.98554 -4.66914,3.16856 -4.85274,3.19132 -4.85274,0.60148 0,-1.8743 1.72078,-3.47276 5.66667,-5.26386 6.8424,-3.10588 13.14977,-3.31751 18.81085,-0.63115 7.26122,3.44567 8.12391,6.1084 8.85582,27.33372 0.6497,18.84164 0.74346,19.34424 3.68644,19.76198 4.5603,0.64735 2.14224,2.90468 -3.11151,2.90468 -2.90687,0 -5.41823,-0.95441 -6.82036,-2.59198 -2.19436,-2.56283 -2.26365,-2.56044 -6.15731,0.21209 -4.8547,3.45685 -15.05942,4.46913 -19.4505,1.92941 z m 19.75093,-5.66804 c 3.79765,-3.1955 4.10231,-4.08857 4.10231,-12.02541 v -8.57353 l -3.66667,0.78453 c -7.74341,1.65683 -15.08423,4.93228 -16.34855,7.29469 -2.094,3.91268 -1.54337,8.65891 1.44532,12.45843 3.60174,4.57887 9.07123,4.60203 14.46759,0.0613 z m 36.58774,5.8924 c -4.81061,-2.32934 -5.81877,-6.92128 -5.81877,-26.50328 v -18.60393 h -3.33333 c -2.07408,0 -3.33333,-0.75556 -3.33333,-2 0,-1.23249 1.25114,-2 3.26027,-2 2.92568,0 3.30199,-0.62818 3.66667,-6.1211 0.36429,-5.48706 0.85525,-6.30907 4.73972,-7.93564 l 4.33333,-1.81452 v 7.93562 7.93564 h 5.33334 c 3.85185,0 5.33333,0.55556 5.33333,2 0,1.48148 -1.55556,2 -6,2 h -6 v 18.72727 c 0,18.3082 0.0763,18.80356 3.40856,22.13584 2.17077,2.17077 4.34963,3.16246 6,2.73089 3.09433,-0.80919 3.50221,1.10453 0.48239,2.26335 -3.08848,1.18516 -8.80952,0.82966 -12.07218,-0.75014 z M 145.33333,135.73333 V 98.666662 l 15,0.0075 c 8.25,0.0041 17.14456,0.603177 19.76568,1.331298 9.97501,2.77099 14.51654,13.41303 9.88726,23.16853 -2.4995,5.26731 -6.62529,8.65674 -13.98628,11.49005 -2.56666,0.98793 -4.88248,1.95851 -5.14624,2.15681 -0.26376,0.19831 4.53624,6.76415 10.66667,14.59075 6.13043,7.8266 12.2001,15.5974 13.48817,17.26845 2.34113,3.03726 2.34012,3.03844 -3.05749,3.55319 l -5.39941,0.51491 -9.40791,-12.51638 c -11.85532,-15.77247 -18.27604,-22.89841 -20.63227,-22.89841 -1.47844,0 -1.84485,3.52208 -1.84485,17.73333 v 17.73333 h -4.66667 -4.66666 z m 27.04282,-4.21598 c 6.20596,-2.6267 9.18163,-6.60257 9.9334,-13.27224 0.57727,-5.12153 0.15328,-6.43116 -3.35224,-10.35452 -3.77934,-4.22983 -4.6036,-4.52124 -14.15186,-5.00341 l -10.13879,-0.51198 v 15.47906 15.47907 h 6.70949 c 3.69022,0 8.64022,-0.81719 11,-1.81598 z m 58.45424,40.47987 c -8.52683,-2.01317 -15.48728,-9.1904 -17.55377,-18.10041 -0.66715,-2.87659 -1.22732,-16.48015 -1.24482,-30.23015 L 212,98.666662 h 4.56839 4.56838 l 0.43162,26.999998 c 0.47389,29.64472 1.21382,32.66215 9.52938,38.86063 5.53464,4.12556 21.18831,4.02858 27.07118,-0.16771 8.06337,-5.75165 9.11567,-10.06704 9.59779,-39.35959 0.42822,-26.016814 0.46827,-26.333354 3.33334,-26.335573 L 274,98.662117 273.2937,125.66436 c -0.76893,29.39685 -1.60344,33.17888 -8.81505,39.95045 -7.19437,6.75538 -20.98728,9.37161 -33.64825,6.38236 z m 86.42218,-0.39779 c -13.89632,-3.9435 -22.60532,-12.8476 -25.31026,-25.87725 -4.56156,-21.97296 5.33645,-40.70572 24.51788,-46.401994 8.82329,-2.620237 24.78134,-2.524697 34.51577,0.206644 7.73653,2.17076 7.80838,2.23641 6.9317,6.33333 -0.48721,2.27691 -1.05681,4.33088 -1.26574,4.56437 -0.20895,0.2335 -3.13611,-1.67933 -6.50482,-4.25072 -14.50445,-11.071494 -35.70126,-6.770153 -44.27611,8.98468 -4.69328,8.6231 -5.81819,22.3865 -2.70496,33.09561 4.73624,16.29211 22.60926,24.83239 41.17729,19.67579 l 5,-1.38858 v -14.33625 -14.33627 l 4.66666,0.54482 4.66667,0.5448 v 15.07697 15.07697 l -7,1.55784 c -10.89876,2.4255 -27.55649,2.87528 -34.41408,0.92924 z"
     style="fill:#000000;stroke-width:1.33333325" />
</svg>
